<svg xmlns="http://www.w3.org/2000/svg" width="310" height="82" viewBox="0 0 310 82" fill="none"><path fill-rule="evenodd" clip-rule="evenodd" d="M7.70511 20.4776H46.4448L38.74 61.6066H0L7.70511 20.4776Z" fill="#26AAE1"></path><path d="M30.5518 45.648L34.2971 46.2206C32.897 49.8773 30.9899 52.6145 28.5735 54.4284C26.1574 56.2455 23.5695 57.1517 20.8102 57.1517C17.436 57.1517 14.7613 56.025 12.8098 53.7687C10.8445 51.5198 9.97637 48.1869 10.2141 43.7738C10.4882 38.6284 12.0231 34.2773 14.8354 30.7215C17.8709 26.8467 21.6409 24.9146 26.1412 24.9146C29.0328 24.9146 31.3935 25.7718 33.2399 27.4834C35.094 29.2035 36.086 31.6147 36.2179 34.7127L32.6356 35.0781C32.1318 30.5976 29.9507 28.3555 26.1038 28.3555C22.7468 28.3555 19.9473 29.8946 17.7051 32.964C15.4658 36.0345 14.2335 39.6655 14.0095 43.8609C13.8384 47.1198 14.442 49.581 15.8319 51.2291C17.2119 52.884 19.0297 53.7098 21.2793 53.7098C23.2079 53.7098 24.9386 53.0868 26.4685 51.8377C28.3389 50.3049 29.6967 48.2458 30.5518 45.648Z" fill="white"></path><path fill-rule="evenodd" clip-rule="evenodd" d="M48.9898 20.4776H87.7295L80.0216 61.6066H41.2822L48.9898 20.4776Z" fill="#26AAE1"></path><path d="M48.8608 56.6224L56.4894 25.4446H60.3169L57.1519 38.3964H71.9607L75.1204 25.4446H78.9507L71.3225 56.6224H67.4946L71.0851 41.93H56.2763L52.6936 56.6224H48.8608Z" fill="white"></path><path fill-rule="evenodd" clip-rule="evenodd" d="M90.2774 20.4776H129.011L121.307 61.6066H82.5674L90.2774 20.4776Z" fill="#26AAE1"></path><path d="M99.6157 56.6224L107.255 25.4446H111.072L103.446 56.6224H99.6157Z" fill="white"></path><path fill-rule="evenodd" clip-rule="evenodd" d="M131.56 20.4776H170.3L162.592 61.6066H123.852L131.56 20.4776Z" fill="#26AAE1"></path><path d="M134.665 56.6224L142.301 25.4446H146.121L139.347 53.0944H154.172L153.323 56.6224H134.665Z" fill="white"></path><path fill-rule="evenodd" clip-rule="evenodd" d="M172.845 20.4776H211.582L203.877 61.6066H165.138L172.845 20.4776Z" fill="#26AAE1"></path><path d="M182.317 56.6224L189.099 28.9952H179.703L180.587 25.4446H203.066L202.212 28.9952H192.893L186.145 56.6224H182.317Z" fill="white"></path><path fill-rule="evenodd" clip-rule="evenodd" d="M214.13 20.4776H252.869L245.161 61.6066H206.422L214.13 20.4776Z" fill="#26AAE1"></path><path d="M215.565 43.5638C215.871 37.8519 217.709 33.2102 221.088 29.6546C224.096 26.4995 227.625 24.9142 231.698 24.9142C235.121 24.9142 237.921 26.1488 240.089 28.6175C242.268 31.0766 243.239 34.5112 243.004 38.9109C242.816 42.4389 241.888 45.6399 240.229 48.5061C238.575 51.3801 236.554 53.5365 234.183 54.9804C231.809 56.4327 229.352 57.1517 226.821 57.1517C224.618 57.1517 222.664 56.6268 220.953 55.5783C219.24 54.531 217.884 52.9418 216.868 50.8156C215.86 48.6878 215.422 46.2717 215.565 43.5638ZM219.311 43.7734C219.153 46.7913 219.865 49.2102 221.447 51.0104C223.03 52.8123 224.969 53.7094 227.266 53.7094C229.01 53.7094 230.751 53.1368 232.5 51.984C234.246 50.835 235.771 49.0363 237.053 46.575C238.345 44.1127 239.066 41.43 239.221 38.5256C239.39 35.3747 238.699 32.899 237.161 31.0922C235.618 29.2853 233.681 28.378 231.355 28.378C228.659 28.378 226.172 29.5597 223.888 31.9335C221.105 34.8378 219.58 38.786 219.311 43.7734Z" fill="white"></path><path fill-rule="evenodd" clip-rule="evenodd" d="M255.415 20.4776H294.155L286.446 61.6066H247.705L255.415 20.4776Z" fill="#26AAE1"></path><path d="M255.547 56.6224L263.183 25.4446H266.913L271.081 37.1395C272.324 40.5871 273.292 43.4691 273.978 45.7971C274.458 47.3968 274.97 49.4362 275.5 51.9052C276.009 49.2178 276.599 46.5093 277.267 43.7736L281.764 25.4446H285.473L277.837 56.6224H274.062L267.921 38.6126C266.835 35.4049 266 32.6008 265.418 30.2073C265.14 32.2381 264.634 34.723 263.909 37.6764L259.253 56.6224H255.547Z" fill="white"></path><path d="M304.959 -1.90131e-07C305.806 -1.90131e-07 306.635 0.216245 307.441 0.651206C308.243 1.08934 308.876 1.71056 309.327 2.52298C309.773 3.33293 310 4.17957 310 5.05937C310 5.9307 309.776 6.76887 309.335 7.57071C308.892 8.37784 308.267 9.00294 307.47 9.4446C306.668 9.88908 305.832 10.1145 304.959 10.1145C304.084 10.1145 303.247 9.88908 302.448 9.4446C301.648 9.00294 301.026 8.37784 300.577 7.57071C300.132 6.76887 299.91 5.9307 299.91 5.05937C299.91 4.17957 300.135 3.33293 300.588 2.52298C301.042 1.70774 301.67 1.08934 302.477 0.651206C303.284 0.216245 304.112 -1.90131e-07 304.959 -1.90131e-07ZM304.959 0.836054C304.249 0.836054 303.558 1.01949 302.889 1.38355C302.218 1.74584 301.696 2.26828 301.314 2.94277C300.936 3.62044 300.747 4.3242 300.747 5.05937C300.747 5.78606 300.934 6.48666 301.306 7.15339C301.674 7.82117 302.195 8.34362 302.865 8.71543C303.534 9.08725 304.231 9.27704 304.959 9.27704C305.684 9.27704 306.384 9.08725 307.054 8.71543C307.721 8.34362 308.238 7.82117 308.61 7.15339C308.976 6.48666 309.161 5.78606 309.161 5.05937C309.161 4.3242 308.974 3.62044 308.597 2.94277C308.222 2.26828 307.697 1.74584 307.023 1.38355C306.349 1.01949 305.663 0.836054 304.959 0.836054ZM302.746 7.85292V2.41327H304.608C305.249 2.41327 305.711 2.46125 305.994 2.56108C306.278 2.66021 306.507 2.83765 306.677 3.08741C306.846 3.34069 306.932 3.60456 306.932 3.88536C306.932 4.28505 306.79 4.62935 306.507 4.92461C306.223 5.21882 305.846 5.38356 305.378 5.42166C305.571 5.49962 305.727 5.59592 305.837 5.70951C306.059 5.92435 306.326 6.2817 306.642 6.79109L307.304 7.85292H306.233L305.753 6.99535C305.373 6.32121 305.072 5.8993 304.841 5.72962C304.68 5.60439 304.445 5.5423 304.133 5.5423H303.625V7.85292H302.746ZM303.625 4.79162H304.684C305.191 4.79162 305.537 4.71471 305.724 4.56232C305.908 4.41169 306.004 4.21026 306.004 3.95944C306.004 3.79717 305.959 3.65465 305.866 3.52554C305.779 3.39996 305.653 3.30506 305.5 3.24333C305.339 3.17842 305.043 3.15055 304.616 3.15055H303.625V4.79162Z" fill="#221F20"></path><path d="M223.056 13.4675C223.056 14.5674 222.681 15.4271 221.927 16.0469C221.173 16.6685 220.134 16.981 218.804 16.981C217.707 16.981 216.8 16.7828 216.077 16.3915V14.6369C216.981 15.1449 217.897 15.3975 218.822 15.3975C219.535 15.3975 220.099 15.244 220.513 14.9392C220.925 14.632 221.133 14.21 221.133 13.6654C221.133 13.3052 221.025 12.9859 220.814 12.7062C220.598 12.4254 220.147 12.068 219.463 11.637C218.915 11.2863 218.509 10.9667 218.248 10.6792C217.987 10.3945 217.789 10.0767 217.649 9.7345C217.511 9.39479 217.44 9.01451 217.44 8.60318C217.44 7.93575 217.601 7.34134 217.922 6.82383C218.245 6.30703 218.698 5.90594 219.287 5.62619C219.875 5.34433 220.537 5.20146 221.273 5.20146C222.344 5.20146 223.336 5.44452 224.256 5.92463L223.584 7.42001C222.745 7.0115 221.975 6.80831 221.273 6.80831C220.704 6.80831 220.247 6.96141 219.902 7.26867C219.556 7.57311 219.385 7.97032 219.385 8.46243C219.385 8.7076 219.424 8.92279 219.501 9.10729C219.58 9.29425 219.701 9.46711 219.867 9.62515C220.031 9.78495 220.385 10.0344 220.92 10.3744C221.732 10.8796 222.289 11.372 222.597 11.844C222.909 12.316 223.056 12.8582 223.056 13.4675Z" fill="#221F20"></path><path d="M224.605 16.8239L227.039 5.36678H228.88L226.446 16.8239H224.605Z" fill="#221F20"></path><path d="M238.161 16.8239H236.122L232.909 7.71056H232.864L232.785 8.24959C232.658 9.03026 232.568 9.58445 232.508 9.91676C232.448 10.2466 231.967 12.5509 231.07 16.8239H229.353L231.774 5.36678H233.871L237 14.3694H237.056C237.085 14.0875 237.168 13.5848 237.298 12.8634C237.43 12.1378 237.533 11.6062 237.613 11.2689L238.865 5.36678H240.582L238.161 16.8239Z" fill="#221F20"></path><path d="M247.746 6.80796C246.942 6.80796 246.222 7.04043 245.589 7.50608C244.956 7.97032 244.452 8.64763 244.075 9.53978C243.692 10.4302 243.505 11.4087 243.505 12.4727C243.505 13.4156 243.722 14.1349 244.154 14.632C244.581 15.1318 245.22 15.3826 246.059 15.3826C246.797 15.3826 247.657 15.2045 248.638 14.8496V16.4533C247.696 16.806 246.72 16.981 245.708 16.981C244.41 16.981 243.394 16.5919 242.663 15.8165C241.928 15.039 241.561 13.9522 241.561 12.5531C241.561 11.1935 241.838 9.93417 242.389 8.76828C242.938 7.60309 243.674 6.71589 244.594 6.1116C245.515 5.50378 246.565 5.20182 247.746 5.20182C248.881 5.20182 249.894 5.44452 250.791 5.92463L250.057 7.45034C249.727 7.27361 249.377 7.12368 249.005 6.99528C248.636 6.8711 248.216 6.80796 247.746 6.80796Z" fill="#221F20"></path><path d="M256.734 16.8239H250.654L253.073 5.36678H259.153L258.818 6.97293H254.592L253.935 10.0674H257.869L257.546 11.6591H253.597L252.846 15.2322H257.069L256.734 16.8239Z" fill="#221F20"></path><path d="M267.708 16.8239H265.837L267.319 10.0064C267.467 9.22181 267.681 8.37482 267.961 7.46751C267.662 7.75254 267.311 8.02029 266.903 8.26546L265.436 9.1823L264.607 7.8499L268.591 5.36678H270.139L267.708 16.8239Z" fill="#221F20"></path><path d="M276.755 6.73147C276.328 6.73147 275.948 6.85317 275.616 7.09835C275.283 7.34352 275.028 7.68288 274.851 8.11784C274.675 8.55033 274.584 9.01704 274.584 9.51973C274.584 10.0672 274.703 10.4863 274.946 10.7742C275.183 11.0617 275.534 11.2067 275.996 11.2067C276.608 11.2067 277.121 10.9587 277.546 10.4666C277.971 9.97762 278.179 9.34934 278.179 8.58737C278.179 8.02294 278.056 7.57317 277.807 7.23557C277.555 6.89762 277.206 6.73147 276.755 6.73147ZM280.008 8.84489C280.008 9.91659 279.855 11.001 279.554 12.0932C279.248 13.1903 278.852 14.1004 278.359 14.8299C277.865 15.5591 277.272 16.0988 276.586 16.4523C275.9 16.8043 275.087 16.9811 274.154 16.9811C273.458 16.9811 272.833 16.8964 272.273 16.7296V15.1068C272.904 15.3323 273.521 15.4444 274.123 15.4444C275.104 15.4444 275.903 15.1227 276.517 14.4803C277.138 13.8379 277.597 12.8209 277.908 11.4307H277.861C277.27 12.2681 276.473 12.6851 275.47 12.6851C274.608 12.6851 273.938 12.4191 273.468 11.8857C272.994 11.3545 272.759 10.6013 272.759 9.62944C272.759 8.81561 272.933 8.0614 273.283 7.36609C273.634 6.67079 274.12 6.13671 274.745 5.76101C275.367 5.3892 276.087 5.20188 276.895 5.20188C277.9 5.20188 278.667 5.51443 279.206 6.13953C279.739 6.76322 280.008 7.66524 280.008 8.84489Z" fill="#221F20"></path><path d="M285.964 6.63639C285.476 6.63639 285.083 6.78103 284.787 7.07594C284.489 7.36838 284.341 7.75219 284.341 8.23548C284.341 8.66762 284.444 9.02497 284.644 9.30753C284.848 9.58975 285.12 9.83527 285.46 10.0367C286.064 9.81234 286.526 9.53718 286.853 9.21511C287.18 8.88951 287.341 8.4803 287.341 7.98325C287.341 7.56134 287.217 7.23045 286.966 6.99268C286.713 6.75527 286.381 6.63639 285.964 6.63639ZM285.045 11.5564C284.267 11.8383 283.703 12.1685 283.353 12.548C283.004 12.928 282.83 13.3883 282.83 13.933C282.83 14.417 282.983 14.8075 283.289 15.0989C283.601 15.3917 284.012 15.5391 284.528 15.5391C285.127 15.5391 285.61 15.3719 285.974 15.0368C286.338 14.7017 286.519 14.2678 286.519 13.727C286.519 13.2525 286.39 12.8412 286.14 12.4927C285.884 12.1459 285.521 11.8355 285.045 11.5564ZM286.119 5.18723C287.056 5.18723 287.791 5.41935 288.338 5.88359C288.878 6.34924 289.15 6.97293 289.15 7.75783C289.15 8.44784 288.945 9.04755 288.53 9.55412C288.121 10.0646 287.472 10.4921 286.589 10.8361C287.217 11.2442 287.667 11.6767 287.942 12.1342C288.217 12.5904 288.352 13.1149 288.352 13.7129C288.352 14.3443 288.19 14.9087 287.871 15.409C287.549 15.9088 287.09 16.2941 286.496 16.5682C285.898 16.8437 285.191 16.9809 284.37 16.9809C283.31 16.9809 282.482 16.7188 281.885 16.1963C281.284 15.6739 280.983 14.9747 280.983 14.0977C280.983 12.5456 281.949 11.4164 283.869 10.7122C283.394 10.3468 283.054 9.96685 282.846 9.57564C282.64 9.1823 282.54 8.76039 282.54 8.30497C282.54 7.37155 282.87 6.61593 283.534 6.04445C284.193 5.47226 285.059 5.18723 286.119 5.18723Z" fill="#221F20"></path><path d="M294.395 12.796L294.927 10.3743C295.088 9.66524 295.349 8.67961 295.713 7.41988H295.648C295.384 7.8686 295.028 8.35542 294.59 8.87751L291.282 12.796H294.395ZM297.433 14.3404H295.858L295.328 16.8239H293.535L294.073 14.3404H289.195L289.488 12.796L295.777 5.33398H297.771L296.199 12.796H297.771L297.433 14.3404Z" fill="#221F20"></path><path d="M165.094 69.6878H166.814L169.557 79.1437L172.806 69.6878H173.729L176.978 79.1437L179.721 69.6878H181.441L177.731 81.3583H176.337L173.268 72.6221L170.198 81.3583H168.804L165.094 69.6878Z" fill="#231F20"></path><path d="M186.85 81.5272C186.85 81.5272 186.467 81.3229 185.703 80.9144C184.938 80.5056 184.356 79.9097 183.954 79.1266C183.553 78.3434 183.353 77.4009 183.353 76.2988V74.9834C183.353 73.8295 183.546 72.8435 183.932 72.0261C184.318 71.2095 184.878 70.5872 185.613 70.16C186.347 69.7328 187.232 69.519 188.266 69.519C189.24 69.519 190.073 69.7293 190.762 70.1487C191.452 70.5688 191.978 71.1816 192.342 71.987C192.706 72.7927 192.887 73.7617 192.887 74.8934V76.2314H184.455V74.7699H191.381V74.657C191.381 73.5031 191.109 72.6092 190.565 71.976C190.022 71.3425 189.256 71.0257 188.266 71.0257C187.179 71.0257 186.34 71.3594 185.748 72.0261C185.155 72.6936 184.859 73.6383 184.859 74.8599V76.344C184.859 77.513 185.174 78.4182 185.804 79.0592C186.433 79.6998 187.322 80.0205 188.469 80.0205C189.008 80.0205 189.542 79.908 190.071 79.6829C190.599 79.4582 191.069 79.1396 191.482 78.7273L192.584 79.7845C192.014 80.339 191.37 80.7684 190.65 81.0717C189.93 81.3751 189.203 81.5272 188.469 81.5272H186.85Z" fill="#231F20"></path><path d="M202.556 69.6877H204.175V81.3583H202.556V69.6877ZM202.556 65.0104H204.175V66.6296H202.556V65.0104Z" fill="#231F20"></path><path d="M215.756 74.2861C215.756 73.2518 215.484 72.45 214.941 71.8803C214.397 71.3106 213.631 71.0259 212.642 71.0259C211.682 71.0259 210.938 71.2788 210.41 71.7847C209.882 72.2906 209.618 73.0084 209.618 73.938L209.381 71.6891C209.794 70.9246 210.341 70.3719 211.023 70.0307C211.705 69.69 212.496 69.5189 213.395 69.5189C214.662 69.5189 215.642 69.9334 216.335 70.7617C217.028 71.5896 217.375 72.7611 217.375 74.2752V81.3584H215.756V74.2861ZM207.999 69.6878H209.618V81.3584H207.999V69.6878Z" fill="#231F20"></path><path d="M228.618 74.2861C228.618 73.2518 228.346 72.45 227.803 71.8803C227.259 71.3106 226.493 71.0259 225.504 71.0259C224.544 71.0259 223.8 71.2788 223.272 71.7847C222.744 72.2906 222.48 73.0084 222.48 73.938L222.243 71.6891C222.656 70.9246 223.202 70.3719 223.885 70.0307C224.567 69.69 225.358 69.5189 226.257 69.5189C227.523 69.5189 228.504 69.9334 229.197 70.7617C229.89 71.5896 230.237 72.7611 230.237 74.2752V81.3584H228.618V74.2861ZM220.86 69.6878H222.48V81.3584H220.86V69.6878Z" fill="#231F20"></path><path d="M240.553 79.093C241.111 78.4746 241.391 77.6029 241.391 76.479V74.5447C241.391 73.4279 241.111 72.5622 240.553 71.9477C239.995 71.3332 239.206 71.0259 238.187 71.0259C237.174 71.0259 236.391 71.3332 235.837 71.9477C235.282 72.5622 235.005 73.4279 235.005 74.5447V76.479C235.005 77.6029 235.282 78.4746 235.837 79.093C236.391 79.7114 237.174 80.0204 238.187 80.0204C239.206 80.0204 239.995 79.7114 240.553 79.093ZM235.6 80.9312C234.881 80.534 234.332 79.9548 233.953 79.1938C233.575 78.4333 233.386 77.5168 233.386 76.4451V74.5447C233.386 73.4879 233.575 72.583 233.953 71.8295C234.332 71.0764 234.881 70.5028 235.6 70.1094C236.32 69.7161 237.186 69.5189 238.197 69.5189C239.21 69.5189 240.076 69.7161 240.795 70.1094C241.515 70.5028 242.063 71.0764 242.442 71.8295C242.82 72.583 243.01 73.4879 243.01 74.5447V76.479C243.01 77.5429 242.82 78.452 242.442 79.2051C242.063 79.9586 241.515 80.534 240.795 80.9312C240.076 81.3284 239.21 81.527 238.197 81.527C237.186 81.527 236.32 81.3284 235.6 80.9312Z" fill="#231F20"></path><path d="M253.365 69.6878H255.085L250.476 81.3583H249.194L244.584 69.6878H246.304L249.835 79.2559L253.365 69.6878Z" fill="#231F20"></path><path d="M264.484 73.9603C264.484 73.0156 264.231 72.2832 263.726 71.7622C263.219 71.2412 262.502 70.9808 261.572 70.9808C261.018 70.9808 260.474 71.0708 259.942 71.2507C259.409 71.4306 258.937 71.6856 258.525 72.0151L257.345 71.2055C257.787 70.6736 258.37 70.2594 259.093 69.9634C259.817 69.6671 260.621 69.519 261.505 69.519C262.472 69.519 263.3 69.69 263.99 70.0305C264.679 70.3719 265.204 70.8665 265.564 71.5145C265.923 72.1633 266.104 72.9447 266.104 73.859V81.3585H264.484V73.9603ZM257.896 80.5824C257.146 79.9527 256.771 79.0648 256.771 77.918C256.771 76.8163 257.114 75.9636 257.8 75.36C258.486 74.7568 259.455 74.4549 260.707 74.4549H264.586L264.743 75.9615H260.718C259.968 75.9615 259.389 76.1319 258.981 76.473C258.572 76.8145 258.368 77.2957 258.368 77.918C258.368 78.5776 258.625 79.0891 259.138 79.4525C259.651 79.8165 260.376 79.9979 261.314 79.9979C262.318 79.9979 263.097 79.8966 263.653 79.6945C264.207 79.492 264.484 79.2073 264.484 78.8397L264.72 80.369C264.488 80.6092 264.19 80.817 263.827 80.993C263.463 81.1694 263.047 81.302 262.579 81.392C262.11 81.4819 261.606 81.5271 261.066 81.5271C259.702 81.5271 258.645 81.2124 257.896 80.5824Z" fill="#231F20"></path><path d="M270.55 80.6332C270.112 80.1121 269.893 79.3421 269.893 78.3226V66.2925H271.512V78.3451C271.512 78.8475 271.624 79.2334 271.849 79.5033C272.074 79.7731 272.408 79.9079 272.85 79.9079H273.952V81.4146H272.625C271.68 81.4146 270.989 81.1542 270.55 80.6332ZM268.69 69.6879H273.952V71.082H268.69V69.6879Z" fill="#231F20"></path><path d="M280.259 81.5272C280.259 81.5272 279.876 81.3229 279.112 80.9144C278.348 80.5056 277.765 79.9097 277.364 79.1266C276.963 78.3434 276.762 77.4009 276.762 76.2988V74.9834C276.762 73.8295 276.955 72.8435 277.341 72.0261C277.727 71.2095 278.287 70.5872 279.022 70.16C279.756 69.7328 280.641 69.519 281.676 69.519C282.65 69.519 283.482 69.7293 284.171 70.1487C284.861 70.5688 285.387 71.1816 285.751 71.987C286.115 72.7927 286.296 73.7617 286.296 74.8934V76.2314H277.864V74.7699H284.79V74.657C284.79 73.5031 284.518 72.6092 283.975 71.976C283.431 71.3425 282.665 71.0257 281.676 71.0257C280.589 71.0257 279.749 71.3594 279.157 72.0261C278.564 72.6936 278.269 73.6383 278.269 74.8599V76.344C278.269 77.513 278.584 78.4182 279.213 79.0592C279.843 79.6998 280.731 80.0205 281.878 80.0205C282.417 80.0205 282.951 79.908 283.48 79.6829C284.008 79.4582 284.479 79.1396 284.891 78.7273L285.993 79.7845C285.423 80.339 284.779 80.7684 284.059 81.0717C283.339 81.3751 282.612 81.5272 281.878 81.5272H280.259Z" fill="#231F20"></path></svg>