<?xml version="1.0" encoding="utf-8"?>
<!-- Generator: Adobe Illustrator 22.0.1, SVG Export Plug-In . SVG Version: 6.00 Build 0)  -->
<svg version="1.1" id="Layer_1" xmlns="http://www.w3.org/2000/svg" xmlns:xlink="http://www.w3.org/1999/xlink" x="0px" y="0px"
	 viewBox="0 0 144 80" style="enable-background:new 0 0 144 80;" xml:space="preserve">
<style type="text/css">
	.st0{fill:#F16522;}
	.st1{fill-rule:evenodd;clip-rule:evenodd;fill:#7FB439;}
	.st2{fill:#231F20;}
</style>
<g>
	<path class="st0" d="M112.8,48.9L123,11.1h9.2l-0.9,3.2h0.1c1.2-1.3,2.4-2.3,3.6-2.9c1.3-0.6,2.6-1,4.1-1c2.1,0,3.4,0.5,4.2,1.6
		c0.7,1.1,0.8,2.7,0.2,4.8L135,48.9h-9.4l7.9-29.3c0.2-0.9,0.3-1.5,0.1-1.8c-0.2-0.3-0.6-0.5-1.2-0.5c-0.6,0-1.1,0.2-1.4,0.5
		c-0.4,0.4-0.7,0.9-0.9,1.7l-7.9,29.3H112.8z M99.2,41.2c-0.2,0.8-0.2,1.4-0.1,1.8c0.2,0.4,0.6,0.5,1.2,0.5c0.6,0,1.1-0.2,1.4-0.5
		c0.4-0.4,0.6-1,0.9-1.8l1.9-7.1h9.4l-1.9,7c-0.7,2.7-2.3,4.8-4.6,6.4c-2.3,1.5-5.3,2.3-8.8,2.3c-4,0-6.6-0.8-7.8-2.4
		c-1.3-1.6-1.4-4.4-0.3-8.3l4.9-18.1c1.1-4,2.7-6.8,4.8-8.4c2.1-1.6,5.2-2.4,9.1-2.4c3.5,0,6,0.7,7.6,2.2c1.6,1.4,2,3.4,1.3,6
		l-3.5,12.9h-12.8L99.2,41.2z M105.3,18.4l-1.9,7.1h3.4l1.9-7.1c0.2-0.8,0.2-1.4,0.1-1.8c-0.2-0.4-0.6-0.5-1.2-0.5
		c-0.6,0-1.1,0.2-1.4,0.5C105.8,16.9,105.5,17.5,105.3,18.4z M77.8,40.5h-0.1c-1,1.4-2.2,2.5-3.5,3.2c-1.3,0.7-2.7,1-4.3,1
		c-2.1,0-3.5-0.5-4.1-1.5c-0.7-1-0.7-2.6-0.1-4.9l5.9-22.1c0.5-1.9,1.4-3.4,2.7-4.4c1.3-1,2.9-1.5,4.9-1.5c1.5,0,2.7,0.3,3.6,0.9
		c0.9,0.6,1.6,1.6,2.1,3h0.2l0.9-3.2h9.1L84.9,48.4c-1.1,3.9-2.7,6.7-4.8,8.4C78,58.4,75,59.2,71,59.2c-3.5,0-6-0.8-7.6-2.3
		c-1.5-1.5-1.9-3.6-1.2-6.3l0.8-2.9h9.4l-0.8,3c-0.2,0.8-0.3,1.4-0.1,1.8c0.2,0.4,0.6,0.5,1.2,0.5c0.6,0,1.1-0.2,1.4-0.5
		c0.4-0.4,0.6-0.9,0.9-1.7L77.8,40.5z M75.7,35.7c-0.2,0.9-0.3,1.5-0.1,1.8c0.2,0.3,0.6,0.5,1.2,0.5c0.6,0,1.1-0.2,1.4-0.6
		c0.4-0.4,0.7-1,0.9-1.7l4.4-16.4c0.2-0.8,0.2-1.3,0-1.7C83.3,17.2,83,17,82.4,17c-0.6,0-1.1,0.2-1.4,0.5c-0.3,0.3-0.6,0.9-0.8,1.7
		L75.7,35.7z M50.5,48.9L63.2,1.6h9.4L59.8,48.9H50.5z M32.9,20.9c1.1-3.9,2.7-6.7,4.8-8.3c2.1-1.6,5.2-2.5,9.1-2.5
		c3.9,0,6.5,0.8,7.8,2.5c1.3,1.6,1.4,4.4,0.3,8.3L50.2,39c-1,3.9-2.6,6.6-4.8,8.3c-2.1,1.6-5.2,2.5-9.1,2.5c-3.9,0-6.6-0.8-7.8-2.5
		C27.1,45.7,27,42.9,28,39L32.9,20.9z M43,18.4l-6.2,22.9c-0.2,0.8-0.2,1.4-0.1,1.8c0.2,0.4,0.6,0.5,1.2,0.5c0.6,0,1.1-0.2,1.4-0.5
		c0.4-0.4,0.6-1,0.9-1.8l6.2-22.9c0.2-0.8,0.2-1.4,0.1-1.8c-0.2-0.4-0.6-0.5-1.2-0.5c-0.6,0-1,0.2-1.4,0.5
		C43.6,16.9,43.3,17.5,43,18.4z M8.5,10.1c0.8-3,2.5-5.4,5.1-7c2.6-1.7,5.9-2.5,9.8-2.5c3.9,0,6.7,0.8,8.4,2.5
		c1.7,1.7,2.1,4.1,1.3,7.2L31,18H20.5l2.3-8.4C23,8.7,23,8.1,22.8,7.8c-0.2-0.3-0.6-0.5-1.2-0.5c-0.7,0-1.2,0.2-1.6,0.5
		c-0.4,0.4-0.7,0.9-0.9,1.8L18,13.8c-0.2,0.7-0.3,1.3-0.2,1.8c0.1,0.5,0.3,1,0.6,1.5l7.5,10c0.7,0.9,1.1,1.9,1.3,2.9
		c0.1,1-0.1,2.7-0.7,4.9L25,40.4c-0.8,3-2.5,5.4-5.1,7c-2.6,1.6-5.9,2.5-9.8,2.5c-4.1,0-6.9-0.9-8.5-2.6c-1.6-1.7-2-4.2-1.1-7.6
		l2.4-8.8h10.5l-2.6,9.5c-0.2,0.8-0.2,1.4-0.1,1.8c0.2,0.4,0.6,0.5,1.3,0.5c0.6,0,1.1-0.2,1.5-0.5c0.4-0.3,0.7-1,0.9-1.8l1.3-5
		c0.2-0.7,0.2-1.3,0.1-1.9c-0.1-0.6-0.4-1.2-0.9-1.9L8,22c-0.7-1-1.2-2-1.3-3c-0.1-1,0-2.3,0.4-4l0.2-0.7L8.5,10.1z"/>
	<path class="st1" d="M35.8,79.4l1.9-1.4c27-15.7,63.9-15.9,80.5-13.1c8,1.3,10.8,2.3,4.4,2.1c-28.5-0.9-49.7,1.3-71.6,8.7
		C42.1,78.7,35.8,79.5,35.8,79.4"/>
	<path class="st2" d="M84.3,58.9l0.8,0.1c0,0.2,0,0.4,0,0.5c0,0.1,0.1,0.2,0.2,0.3c0.1,0.1,0.3,0.1,0.5,0.1c0.5,0,0.9-0.2,1.1-0.5
		c0.2-0.2,0.4-0.7,0.6-1.4l0.2-0.5c-0.5,0.5-1,0.8-1.5,0.8c-0.5,0-0.8-0.2-1.1-0.7c-0.2-0.5-0.3-1.1-0.2-1.9
		c0.1-0.7,0.3-1.3,0.7-1.9c0.3-0.6,0.7-1,1.1-1.3c0.4-0.3,0.8-0.4,1.1-0.4c0.6,0,1,0.4,1.2,1.1l0.3-1h0.7l-1.9,5.9
		c-0.2,0.7-0.4,1.2-0.6,1.5c-0.2,0.4-0.5,0.6-0.8,0.8c-0.3,0.2-0.7,0.3-1.1,0.3c-0.4,0-0.7-0.1-0.9-0.2c-0.3-0.1-0.4-0.3-0.5-0.6
		c-0.1-0.2-0.1-0.5-0.1-0.8C84.2,59.1,84.3,59,84.3,58.9 M85.8,55.7c-0.1,0.4-0.1,0.7-0.1,0.9c0,0.3,0.1,0.5,0.3,0.7
		c0.1,0.2,0.3,0.2,0.5,0.2c0.3,0,0.5-0.1,0.8-0.4c0.3-0.2,0.6-0.6,0.8-1.1c0.2-0.5,0.4-1,0.5-1.4c0.1-0.5,0-0.9-0.1-1.2
		c-0.2-0.3-0.4-0.4-0.7-0.4c-0.2,0-0.4,0.1-0.6,0.2c-0.2,0.1-0.4,0.3-0.6,0.6c-0.2,0.3-0.4,0.6-0.5,1C85.9,55.2,85.8,55.5,85.8,55.7
		z M93.2,56.3l0.8,0.1c-0.2,0.5-0.5,1-1,1.4c-0.5,0.5-1,0.7-1.5,0.7c-0.3,0-0.7-0.1-0.9-0.3c-0.3-0.2-0.4-0.5-0.5-0.9
		c-0.1-0.4-0.1-0.9,0-1.4c0.1-0.7,0.3-1.3,0.7-1.9c0.3-0.6,0.7-1.1,1.1-1.4c0.4-0.3,0.9-0.5,1.3-0.5c0.6,0,1,0.2,1.2,0.7
		c0.3,0.5,0.3,1.1,0.2,1.8c0,0.3-0.1,0.6-0.2,0.9h-3.5c0,0.1-0.1,0.2-0.1,0.3c-0.1,0.6-0.1,1,0.1,1.3c0.2,0.3,0.4,0.5,0.7,0.5
		c0.3,0,0.6-0.1,0.9-0.4C92.8,57.1,93,56.7,93.2,56.3z M91.1,54.8h2.6c0-0.1,0-0.2,0-0.2c0.1-0.5,0-0.9-0.1-1.2
		c-0.2-0.3-0.4-0.4-0.7-0.4c-0.3,0-0.7,0.2-1,0.5C91.7,53.7,91.4,54.1,91.1,54.8z M94.5,58.4l1.9-6.1h0.7l-0.3,1.1
		c0.4-0.4,0.7-0.7,1-0.9c0.3-0.2,0.6-0.3,0.9-0.3c0.4,0,0.7,0.1,0.8,0.4c0.2,0.3,0.2,0.6,0.2,1.1c0,0.2-0.1,0.6-0.3,1.1l-1.2,3.7
		h-0.8l1.3-3.9c0.1-0.4,0.2-0.7,0.2-0.8c0-0.2,0-0.4-0.1-0.5C98.8,53,98.6,53,98.4,53c-0.4,0-0.8,0.2-1.2,0.6c-0.4,0.4-0.7,1-1,2
		l-0.9,2.8H94.5z M103.3,56.3l0.8,0.1c-0.2,0.5-0.5,1-1,1.4c-0.5,0.5-1,0.7-1.5,0.7c-0.3,0-0.7-0.1-0.9-0.3
		c-0.3-0.2-0.4-0.5-0.5-0.9c-0.1-0.4-0.1-0.9,0-1.4c0.1-0.7,0.3-1.3,0.7-1.9c0.3-0.6,0.7-1.1,1.1-1.4c0.4-0.3,0.9-0.5,1.3-0.5
		c0.6,0,1,0.2,1.2,0.7c0.3,0.5,0.3,1.1,0.2,1.8c0,0.3-0.1,0.6-0.2,0.9H101c0,0.1-0.1,0.2-0.1,0.3c-0.1,0.6-0.1,1,0.1,1.3
		c0.2,0.3,0.4,0.5,0.7,0.5c0.3,0,0.6-0.1,0.9-0.4C102.8,57.1,103.1,56.7,103.3,56.3z M101.2,54.8h2.6c0-0.1,0-0.2,0-0.2
		c0.1-0.5,0-0.9-0.1-1.2c-0.2-0.3-0.4-0.4-0.7-0.4c-0.3,0-0.7,0.2-1,0.5C101.7,53.7,101.4,54.1,101.2,54.8z M104.6,58.4l1.9-6.1h0.7
		l-0.4,1.3c0.3-0.5,0.6-0.8,0.9-1c0.3-0.2,0.5-0.3,0.8-0.3c0.2,0,0.3,0.1,0.6,0.2l-0.5,1c-0.1-0.1-0.3-0.2-0.4-0.2
		c-0.3,0-0.6,0.2-1,0.6c-0.4,0.4-0.7,1.1-1,2.2l-0.8,2.5H104.6z M110.9,57.6c-0.3,0.3-0.6,0.5-0.9,0.7c-0.3,0.1-0.6,0.2-0.9,0.2
		c-0.4,0-0.8-0.2-1-0.5c-0.2-0.3-0.3-0.8-0.2-1.3c0.1-0.3,0.2-0.6,0.3-0.9c0.2-0.3,0.4-0.5,0.6-0.6c0.2-0.2,0.5-0.3,0.8-0.3
		c0.2,0,0.5-0.1,1-0.1c0.5,0,0.9-0.1,1.1-0.2c0.1-0.3,0.2-0.5,0.2-0.7c0-0.2,0-0.4-0.1-0.6c-0.2-0.2-0.4-0.3-0.8-0.3
		c-0.3,0-0.6,0.1-0.9,0.3c-0.2,0.2-0.4,0.5-0.6,0.8l-0.8-0.1c0.3-0.6,0.6-1.1,1-1.4c0.4-0.3,0.9-0.5,1.4-0.5c0.6,0,1,0.2,1.3,0.5
		c0.2,0.3,0.3,0.6,0.2,1c-0.1,0.3-0.1,0.7-0.3,1.1l-0.5,1.5c-0.2,0.5-0.3,0.9-0.3,1.2c0,0.2,0,0.5,0,0.8h-0.8
		C110.8,58.2,110.8,57.9,110.9,57.6z M111.5,55.3c-0.1,0.1-0.2,0.1-0.4,0.1c-0.1,0-0.4,0.1-0.7,0.1c-0.5,0.1-0.8,0.1-1,0.2
		c-0.2,0.1-0.4,0.2-0.5,0.4c-0.1,0.2-0.2,0.4-0.2,0.6c0,0.3,0,0.5,0.1,0.7c0.1,0.2,0.3,0.3,0.6,0.3c0.3,0,0.5-0.1,0.8-0.3
		c0.3-0.2,0.5-0.4,0.7-0.8C111.2,56.3,111.4,55.9,111.5,55.3z M114.6,57.5l-0.3,0.9c-0.2,0.1-0.4,0.1-0.6,0.1
		c-0.3,0-0.6-0.1-0.7-0.3c-0.1-0.2-0.2-0.4-0.1-0.6c0-0.1,0.1-0.4,0.3-0.9l1.1-3.6h-0.6l0.3-0.8h0.6l0.5-1.5l1-0.7l-0.7,2.2h0.8
		l-0.3,0.8h-0.8l-1.1,3.4c-0.1,0.4-0.2,0.7-0.2,0.8c0,0.1,0,0.2,0,0.3c0,0.1,0.1,0.1,0.3,0.1C114.3,57.6,114.5,57.6,114.6,57.5z
		 M117.4,51.1l0.4-1.2h0.8l-0.4,1.2H117.4z M115.1,58.4l1.9-6.1h0.8l-1.9,6.1H115.1z M117.6,56c0.2-1.2,0.6-2.2,1.3-3
		c0.5-0.6,1.2-1,1.9-1c0.6,0,1,0.2,1.3,0.7c0.3,0.5,0.4,1.1,0.2,1.9c-0.1,0.7-0.3,1.4-0.6,2c-0.3,0.6-0.7,1.1-1.1,1.4
		c-0.5,0.3-0.9,0.5-1.3,0.5c-0.4,0-0.7-0.1-0.9-0.3c-0.3-0.2-0.5-0.5-0.6-0.9C117.6,57,117.6,56.5,117.6,56z M118.5,55.9
		c-0.1,0.6-0.1,1,0.1,1.3c0.2,0.3,0.4,0.4,0.7,0.4c0.2,0,0.3,0,0.5-0.1c0.2-0.1,0.4-0.2,0.5-0.4c0.2-0.2,0.3-0.4,0.5-0.6
		c0.1-0.2,0.3-0.5,0.4-0.8c0.2-0.4,0.3-0.7,0.3-1.1c0.1-0.6,0-1-0.1-1.3c-0.2-0.3-0.4-0.5-0.7-0.5c-0.3,0-0.5,0.1-0.7,0.2
		c-0.2,0.2-0.5,0.4-0.7,0.7c-0.2,0.3-0.4,0.6-0.5,1C118.6,55.3,118.5,55.6,118.5,55.9z M122.2,58.4l1.9-6.1h0.7l-0.3,1.1
		c0.4-0.4,0.7-0.7,1-0.9c0.3-0.2,0.6-0.3,0.9-0.3c0.4,0,0.7,0.1,0.8,0.4c0.2,0.3,0.2,0.6,0.2,1.1c0,0.2-0.1,0.6-0.3,1.1l-1.2,3.7
		h-0.8l1.3-3.9c0.1-0.4,0.2-0.7,0.2-0.8c0-0.2,0-0.4-0.1-0.5c-0.1-0.1-0.2-0.2-0.4-0.2c-0.4,0-0.8,0.2-1.2,0.6c-0.4,0.4-0.7,1-1,2
		l-0.9,2.8H122.2z"/>
	<path class="st2" d="M37.4,56.3l0.8-0.1c0,0.3-0.1,0.6,0,0.8c0,0.2,0.1,0.4,0.3,0.5c0.2,0.1,0.4,0.2,0.6,0.2c0.4,0,0.6-0.1,0.8-0.3
		c0.2-0.2,0.3-0.4,0.4-0.7c0-0.2,0-0.4-0.1-0.5c-0.1-0.2-0.3-0.4-0.7-0.6c-0.4-0.2-0.6-0.4-0.7-0.5c-0.2-0.2-0.3-0.3-0.4-0.6
		c-0.1-0.2-0.1-0.5,0-0.7c0.1-0.5,0.3-0.9,0.6-1.2c0.3-0.3,0.8-0.5,1.3-0.5c0.6,0,1,0.2,1.3,0.5c0.3,0.4,0.3,0.8,0.3,1.4l-0.8,0.1
		c0-0.4,0-0.7-0.2-0.9c-0.2-0.2-0.4-0.3-0.7-0.3c-0.3,0-0.5,0.1-0.7,0.2c-0.2,0.2-0.3,0.3-0.3,0.5c0,0.2,0,0.4,0.1,0.5
		c0.1,0.1,0.3,0.3,0.6,0.5c0.6,0.3,0.9,0.6,1,0.8c0.2,0.3,0.3,0.7,0.2,1.2c0,0.3-0.2,0.6-0.4,0.9c-0.2,0.3-0.4,0.5-0.8,0.7
		c-0.3,0.2-0.7,0.3-1.1,0.3c-0.5,0-1-0.2-1.3-0.5C37.4,57.6,37.3,57.1,37.4,56.3 M42.1,56c0.2-1.2,0.6-2.2,1.3-3
		c0.5-0.6,1.2-1,1.9-1c0.6,0,1,0.2,1.3,0.7c0.3,0.5,0.4,1.1,0.2,1.9c-0.1,0.7-0.3,1.4-0.6,2c-0.3,0.6-0.7,1.1-1.1,1.4
		c-0.5,0.3-0.9,0.5-1.3,0.5c-0.4,0-0.7-0.1-0.9-0.3c-0.3-0.2-0.5-0.5-0.6-0.9C42,57,42,56.5,42.1,56z M42.9,55.9
		c-0.1,0.6-0.1,1,0.1,1.3c0.2,0.3,0.4,0.4,0.7,0.4c0.2,0,0.3,0,0.5-0.1c0.2-0.1,0.4-0.2,0.5-0.4c0.2-0.2,0.3-0.4,0.5-0.6
		c0.1-0.2,0.3-0.5,0.4-0.8c0.2-0.4,0.3-0.7,0.3-1.1c0.1-0.6,0-1-0.1-1.3c-0.2-0.3-0.4-0.5-0.7-0.5c-0.3,0-0.5,0.1-0.7,0.2
		c-0.2,0.2-0.5,0.4-0.7,0.7c-0.2,0.3-0.4,0.6-0.5,1C43,55.3,42.9,55.6,42.9,55.9z M46.5,58.4l2.7-8.5H50l-2.7,8.5H46.5z M51.9,57.6
		c-0.3,0.3-0.6,0.5-0.9,0.7c-0.3,0.1-0.6,0.2-0.9,0.2c-0.4,0-0.8-0.2-1-0.5c-0.2-0.3-0.3-0.8-0.2-1.3c0.1-0.3,0.2-0.6,0.3-0.9
		c0.2-0.3,0.4-0.5,0.6-0.6c0.2-0.2,0.5-0.3,0.8-0.3c0.2,0,0.5-0.1,1-0.1c0.5,0,0.9-0.1,1.1-0.2c0.1-0.3,0.2-0.5,0.2-0.7
		c0-0.2,0-0.4-0.1-0.6c-0.2-0.2-0.4-0.3-0.8-0.3c-0.3,0-0.6,0.1-0.9,0.3c-0.2,0.2-0.4,0.5-0.6,0.8L49.9,54c0.3-0.6,0.6-1.1,1-1.4
		c0.4-0.3,0.9-0.5,1.4-0.5c0.6,0,1,0.2,1.3,0.5c0.2,0.3,0.3,0.6,0.2,1c-0.1,0.3-0.1,0.7-0.3,1.1L53,56.4c-0.2,0.5-0.3,0.9-0.3,1.2
		c0,0.2,0,0.5,0,0.8h-0.8C51.9,58.2,51.9,57.9,51.9,57.6z M52.6,55.3c-0.1,0.1-0.2,0.1-0.4,0.1c-0.1,0-0.4,0.1-0.7,0.1
		c-0.5,0.1-0.8,0.1-1,0.2c-0.2,0.1-0.4,0.2-0.5,0.4c-0.1,0.2-0.2,0.4-0.2,0.6c0,0.3,0,0.5,0.1,0.7c0.1,0.2,0.3,0.3,0.6,0.3
		c0.3,0,0.5-0.1,0.8-0.3c0.3-0.2,0.5-0.4,0.7-0.8C52.2,56.3,52.4,55.9,52.6,55.3z M53.7,58.4l1.9-6.1h0.7l-0.4,1.3
		c0.3-0.5,0.6-0.8,0.9-1c0.3-0.2,0.5-0.3,0.8-0.3c0.2,0,0.3,0.1,0.6,0.2l-0.5,1c-0.1-0.1-0.3-0.2-0.4-0.2c-0.3,0-0.6,0.2-1,0.6
		c-0.4,0.4-0.7,1.1-1,2.2l-0.8,2.5H53.7z"/>
</g>
</svg>
